<?xml version="1.0" encoding="UTF-8"?>
<svg width="179px" height="29px" viewBox="0 0 179 29" version="1.1" xmlns="http://www.w3.org/2000/svg" xmlns:xlink="http://www.w3.org/1999/xlink">
    <title>Shape</title>
    <g id="Page-1" stroke="none" stroke-width="1" fill="none" fill-rule="evenodd">
        <g id="siemens" transform="translate(0.276, 0.315)" fill="#00A0B0" fill-rule="nonzero">
            <path d="M19.113,0.967 L19.113,6.167 C16.64,5.302 13.932,4.797 11.773,4.797 C9.108,4.797 7.625,5.609 7.625,7.068 C7.625,7.999 8.274,8.616 10.136,9.453 L15.144,11.7 C19.15,13.5 21.169,16.126 21.169,19.538 C21.169,24.804 16.611,28.126 9.386,28.126 C6.751,28.126 3.703,27.749 0.474,27.019 L0.474,21.644 C3.675,22.515 6.607,22.98 8.888,22.98 C11.875,22.98 13.475,22.148 13.475,20.597 C13.475,19.665 12.85,18.98 11.419,18.341 L5.938,15.9 C1.875,14.088 0,11.647 0,8.167 C0,3.18 4.393,0 11.285,0 C13.698,0 16.668,0.367 19.113,0.967 L19.113,0.967 Z M25.069,0.545 L33.168,0.545 L33.168,27.581 L25.069,27.581 L25.069,0.545 Z M59.501,0.545 L59.501,5.498 L47.274,5.498 L47.274,11.596 L57.955,11.596 L57.955,16.076 L47.274,16.076 L47.274,22.398 L59.659,22.398 L59.659,27.581 L39.404,27.581 L39.404,0.545 L59.501,0.545 Z M97.763,0.545 L97.763,27.581 L89.927,27.581 L89.927,9.786 L82.251,27.792 L77.297,27.792 L69.673,9.786 L69.673,27.581 L64.262,27.581 L64.262,0.545 L74.152,0.545 L81.144,16.99 L88.1,0.545 L97.763,0.545 L97.763,0.545 Z M124.117,0.545 L124.117,5.498 L111.872,5.498 L111.872,11.596 L122.55,11.596 L122.55,16.076 L111.872,16.076 L111.872,22.398 L124.255,22.398 L124.255,27.581 L103.982,27.581 L103.982,0.545 L124.117,0.545 Z M152.644,0.545 L152.644,27.581 L144.001,27.581 L134.269,10.241 L134.269,27.581 L128.857,27.581 L128.857,0.545 L137.728,0.545 L147.251,17.656 L147.251,0.545 L152.644,0.545 Z M176.148,0.967 L176.148,6.167 C173.693,5.308 170.968,4.797 168.849,4.797 C166.142,4.797 164.66,5.596 164.66,7.06 C164.66,8.014 165.265,8.584 167.191,9.454 L172.177,11.701 C176.212,13.52 178.206,16.123 178.206,19.575 C178.206,24.813 173.644,28.128 166.435,28.128 C163.796,28.128 160.736,27.749 157.511,27.021 L157.511,21.646 C160.708,22.515 163.634,22.982 165.9,22.982 C168.867,22.982 170.511,22.15 170.511,20.648 C170.511,19.654 169.935,19.013 168.435,18.343 L162.976,15.902 C158.888,14.076 157.035,11.663 157.035,8.17 C157.035,3.186 161.43,0.00398169824 168.306,0.00398169824 C170.726,0.001 173.708,0.367 176.148,0.967 L176.148,0.967 Z" id="Shape"></path>
        </g>
    </g>
</svg>